<svg width="40" height="40" viewBox="0 0 40 40" fill="none" xmlns="http://www.w3.org/2000/svg">
<path d="M33.8853 22.1147C34.3853 22.6147 34.6661 23.2929 34.6661 24C34.6661 24.7071 34.3853 25.3853 33.8853 25.8853L21.8853 37.8853C21.3853 38.3852 20.7071 38.6661 20 38.6661C19.2929 38.6661 18.6147 38.3852 18.1147 37.8853L6.11468 25.8853C5.62892 25.3824 5.36014 24.7088 5.36621 24.0096C5.37229 23.3104 5.65274 22.6416 6.14716 22.1471C6.64158 21.6527 7.31041 21.3723 8.00961 21.3662C8.7088 21.3601 9.3824 21.6289 9.88534 22.1147L17.3333 29.3333L17.3333 3.99999C17.3333 3.29275 17.6143 2.61447 18.1144 2.11438C18.6145 1.61428 19.2928 1.33333 20 1.33333C20.7073 1.33333 21.3855 1.61428 21.8856 2.11438C22.3857 2.61447 22.6667 3.29275 22.6667 3.99999L22.6667 29.3333L30.1147 22.1147C30.6147 21.6147 31.2929 21.3339 32 21.3339C32.7071 21.3339 33.3853 21.6147 33.8853 22.1147Z" fill="#DD6C30"/>
</svg>
