<svg width="45" height="46" viewBox="0 0 45 46" fill="none" xmlns="http://www.w3.org/2000/svg">
<path fill-rule="evenodd" clip-rule="evenodd" d="M19.0582 19.7385C18.6569 19.7385 18.2596 19.818 17.8888 19.9723C17.518 20.1267 17.1812 20.3529 16.8974 20.6381C16.6136 20.9233 16.3886 21.2619 16.235 21.6346C16.0814 22.0073 16.0024 22.4067 16.0024 22.81C16.0024 23.2134 16.0814 23.6128 16.235 23.9854C16.3886 24.3581 16.6136 24.6967 16.8974 24.9819C17.1812 25.2671 17.518 25.4934 17.8888 25.6477C18.2596 25.8021 18.6569 25.8815 19.0582 25.8815H22.1141V19.7385H19.0582ZM22.1141 17.9548H19.0582C18.2476 17.9548 17.4702 17.6311 16.897 17.055C16.3238 16.4789 16.0018 15.6975 16.0018 14.8827C16.0018 14.0679 16.3238 13.2865 16.897 12.7104C17.4702 12.1343 18.2476 11.8106 19.0582 11.8106H22.1141V17.9548ZM23.8887 11.8106V17.9548H26.9445C27.7448 17.939 28.5069 17.6084 29.0672 17.034C29.6276 16.4596 29.9414 15.6872 29.9414 14.8827C29.9414 14.0782 29.6276 13.3059 29.0672 12.7315C28.5069 12.1571 27.7448 11.8264 26.9445 11.8106H23.8887ZM26.9445 19.7373C26.1424 19.7372 25.3724 20.0541 24.8007 20.6196C24.229 21.1852 23.9014 21.9539 23.8887 22.7601V22.8588C23.8985 23.464 24.086 24.0529 24.4277 24.5514C24.7693 25.0499 25.25 25.4358 25.8091 25.6606C26.3683 25.8855 26.9811 25.9392 27.5706 25.8151C28.1601 25.691 28.6999 25.3946 29.1223 24.9631C29.5447 24.5316 29.8309 23.9843 29.9448 23.3899C30.0588 22.7955 29.9954 22.1805 29.7627 21.6222C29.53 21.0638 29.1384 20.587 28.637 20.2517C28.1356 19.9163 27.5468 19.7374 26.9445 19.7373ZM19.0582 27.6652C18.4536 27.665 17.8624 27.845 17.3595 28.1825C16.8566 28.52 16.4646 28.9998 16.233 29.5612C16.0015 30.1227 15.9408 30.7405 16.0586 31.3366C16.1764 31.9328 16.4675 32.4804 16.895 32.9102C17.3225 33.3401 17.8672 33.6328 18.4602 33.7515C19.0532 33.8701 19.668 33.8094 20.2266 33.5768C20.7853 33.3443 21.2628 32.9505 21.5988 32.4451C21.9348 31.9398 22.1141 31.3457 22.1141 30.7379V27.6652H19.0582Z" fill="#888888"/>
</svg>
