<svg width="100" height="100" viewBox="0 0 100 100" fill="none" xmlns="http://www.w3.org/2000/svg">
<path fill-rule="evenodd" clip-rule="evenodd" d="M12.5 45.8333C12.5 30.1208 12.5 22.2625 17.3833 17.3833C22.2667 12.5042 30.1208 12.5 45.8333 12.5H54.1667C69.8792 12.5 77.7375 12.5 82.6167 17.3833C87.4958 22.2667 87.5 30.1208 87.5 45.8333V54.1667C87.5 69.8792 87.5 77.7375 82.6167 82.6167C77.7333 87.4958 69.8792 87.5 54.1667 87.5H45.8333C30.1208 87.5 22.2625 87.5 17.3833 82.6167C12.5042 77.7333 12.5 69.8792 12.5 54.1667V45.8333ZM75 31.25C75 32.9076 74.3415 34.4973 73.1694 35.6694C71.9973 36.8415 70.4076 37.5 68.75 37.5C67.0924 37.5 65.5027 36.8415 64.3306 35.6694C63.1585 34.4973 62.5 32.9076 62.5 31.25C62.5 29.5924 63.1585 28.0027 64.3306 26.8306C65.5027 25.6585 67.0924 25 68.75 25C70.4076 25 71.9973 25.6585 73.1694 26.8306C74.3415 28.0027 75 29.5924 75 31.25ZM58.3333 54.1667C58.3333 56.3768 57.4554 58.4964 55.8926 60.0592C54.3298 61.622 52.2101 62.5 50 62.5C47.7899 62.5 45.6702 61.622 44.1074 60.0592C42.5446 58.4964 41.6667 56.3768 41.6667 54.1667C41.6667 51.9565 42.5446 49.8369 44.1074 48.2741C45.6702 46.7113 47.7899 45.8333 50 45.8333C52.2101 45.8333 54.3298 46.7113 55.8926 48.2741C57.4554 49.8369 58.3333 51.9565 58.3333 54.1667ZM66.6667 54.1667C66.6667 58.5869 64.9107 62.8262 61.7851 65.9518C58.6595 69.0774 54.4203 70.8333 50 70.8333C45.5797 70.8333 41.3405 69.0774 38.2149 65.9518C35.0893 62.8262 33.3333 58.5869 33.3333 54.1667C33.3333 49.7464 35.0893 45.5072 38.2149 42.3816C41.3405 39.2559 45.5797 37.5 50 37.5C54.4203 37.5 58.6595 39.2559 61.7851 42.3816C64.9107 45.5072 66.6667 49.7464 66.6667 54.1667Z" fill="white"/>
</svg>
