<svg width="50" height="50" viewBox="0 0 50 50" fill="none" xmlns="http://www.w3.org/2000/svg">
<path d="M27.1417 4.16669C29.4855 4.17294 30.675 4.18544 31.7021 4.2146L32.1063 4.22919C32.573 4.24585 33.0334 4.26669 33.5896 4.29169C35.8063 4.39585 37.3188 4.74585 38.6459 5.26044C40.0209 5.7896 41.1792 6.50627 42.3375 7.66252C43.3973 8.70363 44.2171 9.9635 44.7396 11.3542C45.2542 12.6813 45.6042 14.1938 45.7084 16.4125C45.7334 16.9667 45.7542 17.4271 45.7709 17.8959L45.7834 18.3C45.8146 19.325 45.8271 20.5146 45.8313 22.8584L45.8334 24.4125V27.1417C45.8385 28.6613 45.8225 30.1809 45.7855 31.7L45.773 32.1042C45.7563 32.5729 45.7355 33.0334 45.7105 33.5875C45.6063 35.8063 45.2521 37.3167 44.7396 38.6459C44.2171 40.0365 43.3973 41.2964 42.3375 42.3375C41.2964 43.3973 40.0366 44.2171 38.6459 44.7396C37.3188 45.2542 35.8063 45.6042 33.5896 45.7084L32.1063 45.7709L31.7021 45.7834C30.675 45.8125 29.4855 45.8271 27.1417 45.8313L25.5875 45.8334H22.8605C21.3402 45.8387 19.8199 45.8227 18.3 45.7854L17.8959 45.7729C17.4013 45.7542 16.9069 45.7327 16.4125 45.7084C14.1959 45.6042 12.6834 45.2542 11.3542 44.7396C9.96428 44.2168 8.70513 43.397 7.66463 42.3375C6.6041 41.2966 5.78361 40.0367 5.26046 38.6459C4.74588 37.3188 4.39588 35.8063 4.29171 33.5875L4.22921 32.1042L4.2188 31.7C4.18039 30.1809 4.16303 28.6613 4.16671 27.1417V22.8584C4.16095 21.3388 4.17623 19.8192 4.21255 18.3L4.22713 17.8959C4.2438 17.4271 4.26463 16.9667 4.28963 16.4125C4.3938 14.1938 4.7438 12.6834 5.25838 11.3542C5.78274 9.96293 6.60468 8.70301 7.66671 7.66252C8.70662 6.60325 9.96502 5.78351 11.3542 5.26044C12.6834 4.74585 14.1938 4.39585 16.4125 4.29169C16.9667 4.26669 17.4292 4.24585 17.8959 4.22919L18.3 4.21669C19.8192 4.17967 21.3388 4.1637 22.8584 4.16877L27.1417 4.16669ZM25 14.5834C22.2374 14.5834 19.5879 15.6808 17.6344 17.6343C15.6808 19.5878 14.5834 22.2374 14.5834 25C14.5834 27.7627 15.6808 30.4122 17.6344 32.3657C19.5879 34.3192 22.2374 35.4167 25 35.4167C27.7627 35.4167 30.4122 34.3192 32.3657 32.3657C34.3192 30.4122 35.4167 27.7627 35.4167 25C35.4167 22.2374 34.3192 19.5878 32.3657 17.6343C30.4122 15.6808 27.7627 14.5834 25 14.5834ZM25 18.75C25.8208 18.7499 26.6336 18.9114 27.3919 19.2254C28.1502 19.5393 28.8393 19.9996 29.4198 20.5799C30.0002 21.1601 30.4607 21.8491 30.7749 22.6073C31.0892 23.3655 31.251 24.1782 31.2511 24.999C31.2512 25.8197 31.0897 26.6325 30.7757 27.3908C30.4618 28.1492 30.0015 28.8382 29.4212 29.4187C28.841 29.9992 28.1521 30.4597 27.3938 30.7739C26.6356 31.0881 25.8229 31.2499 25.0021 31.25C23.3445 31.25 21.7548 30.5915 20.5827 29.4194C19.4106 28.2473 18.7521 26.6576 18.7521 25C18.7521 23.3424 19.4106 21.7527 20.5827 20.5806C21.7548 19.4085 23.3445 18.75 25.0021 18.75M35.9396 11.4584C35.249 11.4584 34.5866 11.7327 34.0982 12.2211C33.6098 12.7095 33.3355 13.3719 33.3355 14.0625C33.3355 14.7532 33.6098 15.4156 34.0982 15.9039C34.5866 16.3923 35.249 16.6667 35.9396 16.6667C36.6303 16.6667 37.2927 16.3923 37.7811 15.9039C38.2694 15.4156 38.5438 14.7532 38.5438 14.0625C38.5438 13.3719 38.2694 12.7095 37.7811 12.2211C37.2927 11.7327 36.6303 11.4584 35.9396 11.4584Z" fill="black"/>
</svg>
