<svg width="100" height="100" viewBox="0 0 100 100" fill="none" xmlns="http://www.w3.org/2000/svg">
<path d="M79.1667 12.5C81.3768 12.5 83.4964 13.378 85.0592 14.9408C86.622 16.5036 87.5 18.6232 87.5 20.8333V79.1667C87.5 81.3768 86.622 83.4964 85.0592 85.0592C83.4964 86.622 81.3768 87.5 79.1667 87.5H20.8333C18.6232 87.5 16.5036 86.622 14.9408 85.0592C13.378 83.4964 12.5 81.3768 12.5 79.1667V20.8333C12.5 18.6232 13.378 16.5036 14.9408 14.9408C16.5036 13.378 18.6232 12.5 20.8333 12.5H79.1667ZM77.0833 77.0833V55C77.0833 51.3975 75.6522 47.9425 73.1049 45.3951C70.5575 42.8478 67.1025 41.4167 63.5 41.4167C59.9583 41.4167 55.8333 43.5833 53.8333 46.8333V42.2083H42.2083V77.0833H53.8333V56.5417C53.8333 53.3333 56.4167 50.7083 59.625 50.7083C61.1721 50.7083 62.6558 51.3229 63.7498 52.4169C64.8438 53.5108 65.4583 54.9946 65.4583 56.5417V77.0833H77.0833ZM28.6667 35.6667C30.5232 35.6667 32.3037 34.9292 33.6164 33.6164C34.9292 32.3037 35.6667 30.5232 35.6667 28.6667C35.6667 24.7917 32.5417 21.625 28.6667 21.625C26.7991 21.625 25.008 22.3669 23.6875 23.6875C22.3669 25.008 21.625 26.7991 21.625 28.6667C21.625 32.5417 24.7917 35.6667 28.6667 35.6667ZM34.4583 77.0833V42.2083H22.9167V77.0833H34.4583Z" fill="white"/>
</svg>
