<svg width="30" height="30" viewBox="0 0 30 30" fill="none" xmlns="http://www.w3.org/2000/svg">
<path d="M13.0625 13.1C13.0815 13.4795 12.9668 13.8537 12.7384 14.1574C12.51 14.4612 12.1824 14.6753 11.8125 14.7625C11.16 14.9552 10.4795 15.0355 9.80005 15C9.62505 15 9.61255 14.8875 9.61255 14.7625V11.575C9.61255 11.4875 9.70005 11.3375 9.75005 11.3375C10.4651 11.2574 11.1887 11.304 11.8875 11.475C12.2393 11.5714 12.5475 11.785 12.7612 12.0806C12.9749 12.3761 13.0812 12.7358 13.0625 13.1Z" fill="black"/>
<path d="M21.25 2.5H8.75C7.0924 2.5 5.50269 3.15848 4.33058 4.33058C3.15848 5.50269 2.5 7.0924 2.5 8.75V21.25C2.5 22.9076 3.15848 24.4973 4.33058 25.6694C5.50269 26.8415 7.0924 27.5 8.75 27.5H21.25C22.9076 27.5 24.4973 26.8415 25.6694 25.6694C26.8415 24.4973 27.5 22.9076 27.5 21.25V8.75C27.5 7.0924 26.8415 5.50269 25.6694 4.33058C24.4973 3.15848 22.9076 2.5 21.25 2.5ZM13.75 16.25C13.1191 16.6507 12.3962 16.8831 11.65 16.925H9.975C9.625 16.925 9.625 16.925 9.625 17.2625V20.1625C9.625 20.4125 9.55 20.4875 9.3 20.4875H7.65C7.4125 20.4875 7.35 20.4 7.35 20.175V9.6375C7.35 9.3875 7.35 9.3125 7.6625 9.3125H11.575C12.2891 9.33185 12.9864 9.53414 13.6 9.9C14.1299 10.1986 14.5711 10.6325 14.8786 11.1573C15.186 11.6822 15.3487 12.2792 15.35 12.8875C15.4223 13.5413 15.3109 14.2023 15.0282 14.7963C14.7456 15.3903 14.303 15.8937 13.75 16.25ZM21.15 20.375C20.0629 20.7985 18.8728 20.8814 17.7375 20.6125C17.3967 20.5375 17.0633 20.4375 16.7375 20.3125C16.6872 20.2889 16.6431 20.2541 16.6084 20.2108C16.5737 20.1674 16.5495 20.1167 16.5375 20.0625V18.175C16.9375 18.325 17.3125 18.5 17.7 18.625C18.3494 18.8326 19.037 18.8923 19.7125 18.8C19.8475 18.775 19.9767 18.7333 20.1 18.675C20.1733 18.6429 20.2369 18.5924 20.2848 18.5284C20.3327 18.4643 20.3632 18.3889 20.3733 18.3096C20.3834 18.2303 20.3727 18.1497 20.3423 18.0757C20.3119 18.0017 20.2629 17.9369 20.2 17.8875C19.914 17.6896 19.6082 17.522 19.2875 17.3875C18.775 17.1375 18.25 16.9375 17.7625 16.65C17.3223 16.4359 16.963 16.0855 16.7378 15.6509C16.5126 15.2162 16.4336 14.7206 16.5125 14.2375C16.5761 13.7726 16.7692 13.3349 17.0699 12.9746C17.3705 12.6143 17.7665 12.3458 18.2125 12.2C19.0164 11.9282 19.8742 11.8552 20.7125 11.9875C21.1125 11.9875 21.5 12.1375 21.9 12.2125C22.1125 12.2125 22.1875 12.3875 22.175 12.6V14.0625C22.175 14.3375 22.1125 14.3625 21.8625 14.2625C21.0818 13.901 20.2188 13.7543 19.3625 13.8375C19.2412 13.8516 19.123 13.8854 19.0125 13.9375C18.9375 13.9669 18.8715 14.0155 18.821 14.0783C18.7706 14.141 18.7374 14.2159 18.7248 14.2955C18.7121 14.3751 18.7205 14.4565 18.749 14.5319C18.7776 14.6072 18.8253 14.6738 18.8875 14.725C19.2492 14.9658 19.6283 15.1742 20.025 15.35C20.5 15.5875 21 15.775 21.4625 16.0375C21.8822 16.2285 22.2298 16.5486 22.4547 16.9511C22.6796 17.3536 22.7699 17.8175 22.7125 18.275C22.673 18.7314 22.5037 19.1669 22.2246 19.5302C21.9455 19.8934 21.5683 20.1692 21.1375 20.325L21.15 20.375Z" fill="black"/>
</svg>
