<svg width="100" height="100" viewBox="0 0 100 100" fill="none" xmlns="http://www.w3.org/2000/svg">
<path d="M69.1668 24.25C66.3193 20.998 64.7497 16.8225 64.7502 12.5H51.8752V64.1667C51.7779 66.9633 50.5982 69.6128 48.5848 71.5562C46.5714 73.4997 43.8818 74.585 41.0835 74.5833C35.1668 74.5833 30.2502 69.75 30.2502 63.75C30.2502 56.5833 37.1668 51.2083 44.2918 53.4167V40.25C29.9168 38.3333 17.3335 49.5 17.3335 63.75C17.3335 77.625 28.8335 87.5 41.0418 87.5C54.1252 87.5 64.7502 76.875 64.7502 63.75V37.5417C69.971 41.291 76.2392 43.3027 82.6668 43.2917V30.4167C82.6668 30.4167 74.8335 30.7917 69.1668 24.25Z" fill="white"/>
</svg>
