<svg width="100" height="100" viewBox="0 0 100 100" fill="none" xmlns="http://www.w3.org/2000/svg">
<path d="M41.6668 62.5L63.2918 50L41.6668 37.5V62.5ZM89.8335 29.875C90.3752 31.8333 90.7502 34.4583 91.0002 37.7917C91.2918 41.125 91.4168 44 91.4168 46.5L91.6668 50C91.6668 59.125 91.0002 65.8333 89.8335 70.125C88.7918 73.875 86.3752 76.2917 82.6252 77.3333C80.6668 77.875 77.0835 78.25 71.5835 78.5C66.1668 78.7917 61.2085 78.9167 56.6252 78.9167L50.0002 79.1667C32.5418 79.1667 21.6668 78.5 17.3752 77.3333C13.6252 76.2917 11.2085 73.875 10.1668 70.125C9.62516 68.1667 9.25016 65.5417 9.00016 62.2083C8.7085 58.875 8.5835 56 8.5835 53.5L8.3335 50C8.3335 40.875 9.00016 34.1667 10.1668 29.875C11.2085 26.125 13.6252 23.7083 17.3752 22.6667C19.3335 22.125 22.9168 21.75 28.4168 21.5C33.8335 21.2083 38.7918 21.0833 43.3752 21.0833L50.0002 20.8333C67.4585 20.8333 78.3335 21.5 82.6252 22.6667C86.3752 23.7083 88.7918 26.125 89.8335 29.875Z" fill="white"/>
</svg>
